<svg xmlns="http://www.w3.org/2000/svg" fill="none" viewBox="-0.5 -0.5 14 14"><g id="screensaver-monitor-wallpaper"><path id="vector" stroke="#dddddd" stroke-linecap="round" stroke-linejoin="round" d="M0.9285714285714286 1.1607142857142858h11.142857142857142c0.2785714285714286 0 0.4642857142857143 0.18571428571428572 0.4642857142857143 0.4642857142857143v7.428571428571429c0 0.2785714285714286 -0.18571428571428572 0.4642857142857143 -0.4642857142857143 0.4642857142857143H0.9285714285714286c-0.2785714285714286 0 -0.4642857142857143 -0.18571428571428572 -0.4642857142857143 -0.4642857142857143v-7.428571428571429c0 -0.2785714285714286 0.18571428571428572 -0.4642857142857143 0.4642857142857143 -0.4642857142857143Z" stroke-width="1"></path><path id="vector_2" stroke="#dddddd" stroke-linecap="round" stroke-linejoin="round" d="M4.309147142857143 5.339285714285714c0.7131707142857143 0 1.2912992857142858 -0.5781285714285714 1.2912992857142858 -1.29129 0 -0.7131707142857143 -0.5781285714285714 -1.2912992857142858 -1.2912992857142858 -1.2912992857142858 -0.7131614285714286 0 -1.29129 0.5781285714285714 -1.29129 1.2912992857142858C3.017857142857143 4.761157142857143 3.5959857142857143 5.339285714285714 4.309147142857143 5.339285714285714Z" stroke-width="1"></path><path id="vector_3" stroke="#dddddd" stroke-linecap="round" stroke-linejoin="round" d="m5.571428571428571 9.517857142857142 -0.9285714285714286 2.3214285714285716" stroke-width="1"></path><path id="vector_4" stroke="#dddddd" stroke-linecap="round" stroke-linejoin="round" d="m7.428571428571429 9.517857142857142 0.9285714285714286 2.3214285714285716" stroke-width="1"></path><path id="vector_5" stroke="#dddddd" stroke-linecap="round" stroke-linejoin="round" d="M3.7142857142857144 11.839285714285715h5.571428571428571" stroke-width="1"></path><path id="vector_6" stroke="#dddddd" stroke-linecap="round" stroke-linejoin="round" d="m3.797708571428571 9.517578571428572 4.712732142857143 -4.53141c0.08126857142857143 -0.06948499999999999 0.18369 -0.10753785714285714 0.28946357142857143 -0.10753785714285714 0.10576428571428571 0 0.2081857142857143 0.038052857142857145 0.2894542857142857 0.10753785714285714l3.4463557142857146 2.5442857142857145" stroke-width="1"></path></g></svg>