<svg xmlns="http://www.w3.org/2000/svg" fill="none" viewBox="-0.5 -0.5 14 14"><g id="wifi--wireless-wifi-internet-server-network-connection"><path id="Vector" stroke="#dddddd" stroke-linecap="round" stroke-linejoin="round" d="M6.5 11.374907142857143c0.6718214285714286 0 1.2164285714285714 -0.5446071428571428 1.2164285714285714 -1.2164285714285714S7.171821428571429 8.942031428571429 6.5 8.942031428571429c-0.6718121428571429 0 -1.2164285714285714 0.5446257142857144 -1.2164285714285714 1.2164471428571428 0 0.6718214285714286 0.5446164285714286 1.2164285714285714 1.2164285714285714 1.2164285714285714Z" stroke-width="1"></path><path id="Vector_2" stroke="#dddddd" stroke-linecap="round" stroke-linejoin="round" d="M4.206428571428572 7.428469285714286c0.3019435714285715 -0.309985 0.6629257142857143 -0.5563628571428572 1.0616264285714285 -0.7245828571428572 0.3987007142857143 -0.16822928571428572 0.82706 -0.2548928571428572 1.2598021428571429 -0.2548928571428572 0.43274214285714285 0 0.8611014285714287 0.08666357142857142 1.2598021428571429 0.2548928571428572 0.3987007142857143 0.16821999999999998 0.7596735714285715 0.41459785714285713 1.0616264285714285 0.7245828571428572" stroke-width="1"></path><path id="Vector_3" stroke="#dddddd" stroke-linecap="round" stroke-linejoin="round" d="M2.191419285714286 5.859387857142857c0.5652307142857143 -0.5685271428571429 1.2372842857142858 -1.0197014285714285 1.977504285714286 -1.3275785714285715 0.74022 -0.30786785714285714 1.5340092857142857 -0.46636571428571433 2.33571 -0.46636571428571433 0.8016914285714286 0 1.5954807142857144 0.15849785714285716 2.3357007142857142 0.46636571428571433 0.7402014285714286 0.3078771428571429 1.4123014285714286 0.7590514285714286 1.9775228571428574 1.3275785714285715" stroke-width="1"></path><path id="Vector_4" stroke="#dddddd" stroke-linecap="round" stroke-linejoin="round" d="M0.4642857142857143 4.132115000000001c0.7924707142857144 -0.7928885714285714 1.7334014285714288 -1.4218564285714288 2.769037142857143 -1.8509864285714288C4.268949285714286 1.8519985714285714 5.378982142857143 1.6311192857142858 6.5 1.6311192857142858c1.121017857142857 0 2.2310507142857143 0.22087928571428572 3.2667142857142855 0.6500092857142857 1.0356357142857142 0.42913 1.976557142857143 1.058097857142857 2.769 1.8509864285714288" stroke-width="1"></path></g></svg>